<svg id="Camada_2" data-name="Camada 2" xmlns="http://www.w3.org/2000/svg" viewBox="0 0 904.13 904.13"><defs><style>.cls-1{fill:#5ba58a;}.cls-2{fill:#f4f4f9;}.cls-3{fill:#010d01;}.cls-4{fill:#d67d9d;}</style></defs><path class="cls-1" d="M1110.12,498.73c0,169.19-92.95,316.67-230.57,394.17a450,450,0,0,1-221.5,57.89c-249.66,0-452-202.4-452-452.06S408.39,46.66,658.05,46.66c166.14,0,311.34,89.62,389.9,223.14A450,450,0,0,1,1110.12,498.73Z" transform="translate(-206 -46.66)"/><path class="cls-2" d="M1110.12,498.73c0,169.19-92.95,316.67-230.57,394.17-69.59,10.33-155.17-12.67-219.9-59.42C551,755,532.22,632.13,531.45,626.56c-1.24-9-1.55-14.65-2.24-47.58-1-45.1-4.19-93.09,5.66-227,11.57-157.11,18-244.88,46.5-249.69,8-1.34,20.89,3.26,41.09,35L718.13,289.2l4.11-1.28c18-5.58,38.73-11.19,62-16,17.14-3.57,35.61-6.74,55.3-9.15,19.12-2.36,39.41-4,60.75-4.68,7.38-.25,14.9-.35,22.55-.34q15.59,0,30.4.75c21.33,1,41.43,3,60.18,5.61,12.11,1.69,23.64,3.62,34.58,5.72A450,450,0,0,1,1110.12,498.73Z" transform="translate(-206 -46.66)"/><path class="cls-2" d="M566.69,583.32h-117a5.14,5.14,0,0,1,0-10.28h117a5.14,5.14,0,0,1,0,10.28Z" transform="translate(-206 -46.66)"/><path class="cls-2" d="M566.69,650.26h-117a5.14,5.14,0,0,1,0-10.28h117a5.14,5.14,0,0,1,0,10.28Z" transform="translate(-206 -46.66)"/><path class="cls-2" d="M566.69,717.2h-117a5.14,5.14,0,0,1,0-10.28h117a5.14,5.14,0,0,1,0,10.28Z" transform="translate(-206 -46.66)"/><ellipse class="cls-3" cx="532.52" cy="450.12" rx="24.7" ry="53.02"/><ellipse class="cls-3" cx="771.21" cy="450.12" rx="24.7" ry="53.02"/><path class="cls-4" d="M808.28,586c4-6.33,17.75-6.58,45.16-7.08,27.24-.49,41-.59,45.93,7.08,8,12.36-7,33.6-7.87,34.86-9.19,12.67-27.6,25.35-47.23,21.37C815.86,636.5,799.62,599.59,808.28,586Z" transform="translate(-206 -46.66)"/><path class="cls-3" d="M783.68,304.57c-.85,33.33-1.48,50.2-11.24,60.72-2.47,2.66-8.65,9.13-16.87,9-10.05-.17-17-10.11-20.7-15.43-2.15-3.05-10.75-15.94-12.72-46.57a182,182,0,0,1,.09-24.37c18-5.58,38.73-11.19,62-16C784.31,278.74,784.09,289,783.68,304.57Z" transform="translate(-206 -46.66)"/><path class="cls-3" d="M899.74,291.08c-.85,33.32-1.49,50.19-11.25,60.72-2.46,2.66-8.65,9.13-16.87,9-10-.16-17-10.1-20.7-15.41-2.14-3.07-10.74-15.94-12.71-46.57a183.82,183.82,0,0,1,1.28-36.06c19.12-2.36,39.41-4,60.75-4.68C900.38,264.92,900.15,275.21,899.74,291.08Z" transform="translate(-206 -46.66)"/><path class="cls-3" d="M1013.37,264.08c0,6.52-.22,15.21-.53,27-.85,33.32-1.48,50.19-11.24,60.72-2.47,2.66-8.65,9.13-16.87,9-10-.16-17-10.1-20.7-15.41-2.15-3.07-10.75-15.94-12.7-46.57a185.43,185.43,0,0,1,1.86-40.33C974.52,259.5,994.62,261.48,1013.37,264.08Z" transform="translate(-206 -46.66)"/></svg>